<svg xmlns:dc="http://purl.org/dc/elements/1.1/" xmlns:cc="http://creativecommons.org/ns#" xmlns:rdf="http://www.w3.org/1999/02/22-rdf-syntax-ns#" xmlns:svg="http://www.w3.org/2000/svg" xmlns="http://www.w3.org/2000/svg" xmlns:sodipodi="http://sodipodi.sourceforge.net/DTD/sodipodi-0.dtd" xmlns:inkscape="http://www.inkscape.org/namespaces/inkscape" version="1.1" viewBox="0 0 32 40" x="0px" y="0px"><g transform="translate(0,-1020.3622)"><path style="color:#000000;font-style:normal;font-variant:normal;font-weight:normal;font-stretch:normal;font-size:medium;line-height:normal;font-family:sans-serif;text-indent:0;text-align:start;text-decoration:none;text-decoration-line:none;text-decoration-style:solid;text-decoration-color:#000000;letter-spacing:normal;word-spacing:normal;text-transform:none;direction:ltr;block-progression:tb;writing-mode:lr-tb;baseline-shift:baseline;text-anchor:start;white-space:normal;clip-rule:nonzero;display:inline;overflow:visible;visibility:visible;opacity:1;isolation:auto;mix-blend-mode:normal;color-interpolation:sRGB;color-interpolation-filters:linearRGB;solid-color:#000000;solid-opacity:1;fill:#000000;fill-opacity:1;fill-rule:nonzero;stroke:none;stroke-width:1;stroke-linecap:round;stroke-linejoin:round;stroke-miterlimit:4;stroke-dasharray:none;stroke-dashoffset:0;stroke-opacity:1;color-rendering:auto;image-rendering:auto;shape-rendering:auto;text-rendering:auto;enable-background:accumulate" d="m 3.5,1024.3622 a 0.50004997,0.50004997 0 0 0 -0.5,0.5 l 0,0.5 -1.5,0 a 0.50005,0.50005 0 0 0 -0.5,0.5 l 0,21 a 0.50005,0.50005 0 0 0 0.5,0.5 l 12,0 c 0.52539,0.8684 1.41312,1.5 2.5,1.5 1.08688,0 1.97461,-0.6316 2.5,-1.5 l 12,0 a 0.50005,0.50005 0 0 0 0.5,-0.5 l 0,-17.375 0,-3.625 a 0.50005,0.50005 0 0 0 -0.5,-0.5 l -1.5,0 0,-0.5 a 0.50004997,0.50004997 0 0 0 -0.5,-0.5 l -11,0 c -0.5993,0 -1.13252,0.2718 -1.5,0.6934 -0.36748,-0.4216 -0.9007,-0.6934 -1.5,-0.6934 l -11,0 z m 0.5,1 10.5,0 c 0.56266,0 1,0.4374 1,1 l 0,18.416 c -0.30825,-0.1946 -0.61078,-0.416 -1,-0.416 l -10.5,0 0,-18.4219 a 0.50005,0.50005 0 0 0 0,-0.1601 l 0,-0.418 z m 13.5,0 10.5,0 0,0.418 a 0.50005,0.50005 0 0 0 0,0.164 l 0,18.418 -10.5,0 c -0.38922,0 -0.69175,0.2214 -1,0.416 l 0,-18.416 c 0,-0.5626 0.43734,-1 1,-1 z m -15.5,1 1,0 0,18.5 a 0.50004997,0.50004997 0 0 0 0.5,0.5 l 11,0 c 0.56266,0 1,0.4374 1,1 a 0.50004997,0.50004997 0 0 0 0.52148,0.4922 0.50004997,0.50004997 0 0 0 0.14649,-0.029 0.50004997,0.50004997 0 0 0 0.33203,-0.4629 c 0,-0.5626 0.43734,-1 1,-1 l 11,0 a 0.50004997,0.50004997 0 0 0 0.5,-0.5 l 0,-18.5 1,0 0,3.125 0,16.875 -11.70898,0 a 0.50005,0.50005 0 0 0 -0.45899,0.3008 c -0.30756,0.7064 -1.00337,1.1992 -1.83203,1.1992 -0.82866,0 -1.52447,-0.4928 -1.83203,-1.1992 a 0.50005,0.50005 0 0 0 -0.45899,-0.3008 l -11.70898,0 0,-20 z m 4.94922,1 a 0.50064424,0.50064424 0 0 0 0.05078,1 l 5,0 a 0.50005,0.50005 0 1 0 0,-1 l -5,0 a 0.50005,0.50005 0 0 0 -0.0508,0 z m 11.50781,2 a 0.50064474,0.50064474 0 0 0 0.0508,1 l 8,0 a 0.50005,0.50005 0 1 0 0,-1 l -8,0 a 0.50005,0.50005 0 0 0 -0.0508,0 z m -9.50781,2 a 0.50064424,0.50064424 0 0 0 0.05078,1 l 4.50781,0 a 0.50005,0.50005 0 1 0 0,-1 l -4.50781,0 a 0.50005,0.50005 0 0 0 -0.0508,0 z m 9.50781,0 a 0.50064474,0.50064474 0 0 0 0.0508,1 l 8,0 a 0.50005,0.50005 0 1 0 0,-1 l -8,0 a 0.50005,0.50005 0 0 0 -0.0508,0 z m -13,2 a 0.50064474,0.50064474 0 1 0 0.0508,1 l 8,0 a 0.50005,0.50005 0 1 0 0,-1 l -8,0 a 0.50005,0.50005 0 0 0 -0.0508,0 z m 13,0 a 0.50064474,0.50064474 0 0 0 0.0508,1 l 8,0 a 0.50005,0.50005 0 1 0 0,-1 l -8,0 a 0.50005,0.50005 0 0 0 -0.0508,0 z m -13,2 a 0.50064474,0.50064474 0 1 0 0.0508,1 l 8,0 a 0.50005,0.50005 0 1 0 0,-1 l -8,0 a 0.50005,0.50005 0 0 0 -0.0508,0 z m 13,0 a 0.50064474,0.50064474 0 0 0 0.0508,1 l 8,0 a 0.50005,0.50005 0 1 0 0,-1 l -8,0 a 0.50005,0.50005 0 0 0 -0.0508,0 z m -13,2 a 0.50064474,0.50064474 0 1 0 0.0508,1 l 8,0 a 0.50005,0.50005 0 1 0 0,-1 l -8,0 a 0.50005,0.50005 0 0 0 -0.0508,0 z m 13,0 a 0.50064474,0.50064474 0 0 0 0.0508,1 l 8,0 a 0.50005,0.50005 0 1 0 0,-1 l -8,0 a 0.50005,0.50005 0 0 0 -0.0508,0 z m -13,2 a 0.50064474,0.50064474 0 1 0 0.0508,1 l 8,0 a 0.50005,0.50005 0 1 0 0,-1 l -8,0 a 0.50005,0.50005 0 0 0 -0.0508,0 z m 13,0 a 0.50064474,0.50064474 0 0 0 0.0508,1 l 8,0 a 0.50005,0.50005 0 1 0 0,-1 l -8,0 a 0.50005,0.50005 0 0 0 -0.0508,0 z m -13,2 a 0.50064474,0.50064474 0 1 0 0.0508,1 l 5,0 a 0.50005,0.50005 0 1 0 0,-1 l -5,0 a 0.50005,0.50005 0 0 0 -0.0508,0 z m 13,0 a 0.50064474,0.50064474 0 0 0 0.0508,1 l 5,0 a 0.50005,0.50005 0 1 0 0,-1 l -5,0 a 0.50005,0.50005 0 0 0 -0.0508,0 z"/></g><style type="text/css">
	.st0{fill:#030102;}
</style><text x="0" y="47" fill="#000000" font-size="5px" font-weight="bold" font-family="'Helvetica Neue', Helvetica, Arial-Unicode, Arial, Sans-serif">Created by Dev Patel</text><text x="0" y="52" fill="#000000" font-size="5px" font-weight="bold" font-family="'Helvetica Neue', Helvetica, Arial-Unicode, Arial, Sans-serif">from the Noun Project</text></svg>