<?xml version="1.0" encoding="utf-8"?>
<!-- Generator: Adobe Illustrator 22.1.0, SVG Export Plug-In . SVG Version: 6.00 Build 0)  -->
<svg version="1.1" id="Ebene_1" xmlns="http://www.w3.org/2000/svg" xmlns:xlink="http://www.w3.org/1999/xlink" x="0px" y="0px"
	 viewBox="0 0 246 127" enable-background="new 0 0 246 127" xml:space="preserve">
<g id="Ebene_1_1_" display="none">
	<path display="inline" fill="#F7A813" d="M62.5,68.1L38.1,25.8c-0.4-0.7,0.2-1.6,1.1-1.5l23.7,5c0.4,0.1,0.8,0.1,1.1,0l23.7-5
		c0.8-0.2,1.5,0.7,1.1,1.5L64.3,68.1C63.9,68.8,62.9,68.8,62.5,68.1z"/>
	<path display="inline" fill="#F9B564" d="M62.3,67.8L49,44.6c4.3,0.4,9.1,0.7,14.3,0.7c5.3,0,10.2-0.3,14.6-0.7
		c-4.5,7.7-8.9,15.5-13.4,23.2C64,68.6,62.8,68.6,62.3,67.8z"/>
	<path display="inline" fill="#FACD9B" d="M62.5,68.1l-7-12.1c2.1,0.4,4.8,0.8,7.9,0.8c3,0,5.7-0.3,7.8-0.8l-7,12.1
		C63.9,68.8,62.9,68.8,62.5,68.1z"/>
	<path display="inline" fill="#828282" d="M58.2,71.6H9.5c-0.8,0-1.3-0.8-0.9-1.5L33,27.9c0.4-0.7,1.3-0.7,1.7,0L52.1,58l7,12.1
		C59.5,70.8,59,71.6,58.2,71.6z"/>
	<path display="inline" fill="#A3A2A2" d="M57.8,71.6H31c2.7-3.5,5.6-7.7,8.4-12.6c2.5-4.4,4.5-8.7,6.1-12.5
		c3.4,5.8,6.7,11.7,10.1,17.5c1.1,1.9,2.2,3.8,3.3,5.7C59.3,70.6,58.7,71.6,57.8,71.6z"/>
	<path display="inline" fill="#D1D0D1" d="M58.2,71.6H44.3c1.4-1.6,3.1-3.7,4.7-6.4c1.5-2.7,2.5-5.1,3.1-7.1l7,12.1
		C59.5,70.8,59,71.6,58.2,71.6z"/>
	<path display="inline" fill="#828282" d="M92.1,27.9L67.7,70.1c-0.4,0.7,0.1,1.5,0.9,1.5h48.8c0.8,0,1.3-0.8,0.9-1.5L93.8,27.9
		C93.4,27.2,92.5,27.2,92.1,27.9z"/>
	<path display="inline" fill="#A3A2A2" d="M81.3,46.6L67.9,69.8c-0.5,0.8,0.1,1.8,1.1,1.8h26.8c-2.7-3.2-5.6-7.3-8.4-12.2
		C84.6,54.8,82.7,50.4,81.3,46.6z"/>
	<path display="inline" fill="#D1D0D1" d="M74.7,58.1l-7,12.1c-0.4,0.7,0.1,1.5,0.9,1.5h13.9c-1.4-1.5-3.2-3.6-4.8-6.4
		C76.2,62.5,75.3,60,74.7,58.1z"/>
	<path display="inline" fill="#828282" d="M64.3,79.1l24.4,42.2c0.4,0.7-0.1,1.5-0.9,1.5H39c-0.8,0-1.3-0.8-0.9-1.5l24.4-42.2
		C62.9,78.4,63.9,78.4,64.3,79.1z"/>
	<path display="inline" fill="#A3A2A2" d="M64.5,79.5l13.4,23.2C74,101.8,69,101,63.2,101c-5.7,0-10.5,0.8-14.2,1.7
		c4.5-7.7,8.9-15.5,13.4-23.2C62.8,78.7,64,78.7,64.5,79.5z"/>
	<path display="inline" fill="#D1D0D1" d="M64.3,79.1l7,12.1c-1.8-0.6-4.4-1.3-7.6-1.3c-3.5,0-6.2,0.7-8,1.3c2.3-4,4.6-8,7-12.1
		C62.9,78.4,63.9,78.4,64.3,79.1z"/>
	<g display="inline">
		<path fill="#4D8CCA" d="M58.2,75.6H9.5c-0.9,0-1.3,1-0.7,1.7c0,0,4.3,7.5,7.1,12.4v-0.2L15.8,89c0-0.8,0.6-1.5,1.4-1.7l1.4-0.2
			c0.8,0,1.5,0.5,1.7,1.3l0.1,0.5l0.1,1.1l0,0c0.1,0.6,0.6,1,1.1,1.1c0.2,0,0.4,0.1,0.6,0c0.3,0,0.7-0.2,0.9-0.4l0.2-0.3l0.5-0.6
			l0.3-0.4c0.6-0.6,1.5-0.7,2.2-0.2l1.1,0.9c0.6,0.6,0.7,1.5,0.3,2.2l-0.3,0.4l-0.5,0.6l-0.2,0.3c0,0,0,0.1-0.1,0.1l0,0
			c0,0,0,0.1-0.1,0.1v0.1l0,0V94c0,0.2,0,0.4,0,0.6c0.1,0.3,0.3,0.7,0.5,0.9c0.3,0.2,0.6,0.3,0.9,0.3l0.4-0.1l0.8-0.1l0.5-0.1
			c0.8,0,1.5,0.6,1.7,1.4l0.2,1.4c0,0.8-0.5,1.5-1.3,1.7l-0.5,0.1l-1.1,0.1c0,0,0,0-0.1,0c0,0,0,0-0.1,0c0,0,0,0-0.1,0
			c0,0,0,0-0.1,0h-0.1l0,0c0,0,0,0-0.1,0l0,0l-0.1,0.1l0,0l-0.1,0.1l0,0c-0.3,0.3-0.5,0.8-0.4,1.3c0,0.4,0.2,0.7,0.4,0.9l0.3,0.2
			l0.6,0.5l0.4,0.3c0.6,0.6,0.7,1.5,0.2,2.2l-0.9,1.1c-0.6,0.6-1.5,0.7-2.2,0.3L26,107l6.8,11.7c0.3,0.8,1.4,1,1.8,0.2l24.3-42.1
			C59.4,76.5,59,75.6,58.2,75.6z"/>
	</g>
	<g id="gear_12_" display="inline">
		<path id="gear_13_" fill="#4D8CCA" d="M13,92.5l0.2,0.4l0.5,0.9l0,0l0,0c0.1,0.2,0.3,0.3,0.5,0.4l0,0c0.4,0.2,0.9,0.2,1.3-0.1
			c0.1-0.1,0.2-0.2,0.3-0.3c0.1-0.1,0.2-0.3,0.2-0.4l0.1-0.3l0.2-0.7l0.1-0.4c0.3-0.7,1-1.1,1.7-1l1.2,0.3c0.7,0.3,1.1,0.9,1,1.6
			l-0.1,0.4l-0.3,1l0,0l0,0c-0.1,0.5,0.2,1,0.6,1.3c0.1,0.1,0.3,0.2,0.5,0.2c0.3,0.1,0.6,0,0.9-0.1l0.3-0.2l0.6-0.4l0.4-0.2
			c0.7-0.3,1.4-0.1,1.9,0.5l0.6,1.1c0.3,0.7,0.1,1.4-0.4,1.9l-0.4,0.2L24.3,99L24,99.2l0,0l0,0l0,0c0,0-0.1,0-0.1,0.1l0,0l-0.1,0.1
			l0,0l-0.1,0.1l0,0c0,0,0,0.1-0.1,0.1l0,0c-0.1,0.2-0.2,0.3-0.2,0.5c-0.1,0.3,0,0.6,0.2,0.9s0.4,0.5,0.7,0.6l0.3,0.1l0.7,0.2
			l0.4,0.1c0.7,0.3,1.1,1,1,1.7l-0.3,1.2c-0.3,0.7-0.9,1.1-1.7,1l-0.4-0.1l-1-0.3l0,0l0,0l0,0c0,0,0,0-0.1,0c0,0,0,0-0.1,0
			c0,0,0,0-0.1,0c0,0,0,0-0.1,0h-0.1l0,0c0,0,0,0-0.1,0l0,0h-0.1l0,0h-0.1l0,0c-0.4,0.2-0.7,0.5-0.8,0.9l0,0l0,0l0,0
			c-0.1,0.3,0,0.6,0.1,0.9l0.2,0.3l0.4,0.6l0.2,0.4c0.3,0.7,0.1,1.4-0.5,1.9l-1.1,0.7c-0.7,0.3-1.4,0.1-1.9-0.4l-0.2-0.4l-0.5-0.9
			l-0.1-0.1l0,0c0,0,0,0-0.1-0.1c-0.4-0.4-1.1-0.5-1.6-0.2l0,0c-0.3,0.2-0.5,0.4-0.6,0.7l0,0l-0.1,0.3l0,0l-0.2,0.7l-0.1,0.4
			c-0.3,0.7-1,1.1-1.7,1l-1.2-0.3c-0.7-0.3-1.1-0.9-1-1.7l0.1-0.4l0.2-1l0,0l0,0v-0.1l0,0c0,0,0,0,0-0.1v-0.1l0,0v-0.1l0,0l0,0l0,0
			v-0.1l0,0v-0.1l0,0v-0.1c-0.2-0.3-0.5-0.6-0.9-0.7c-0.3-0.1-0.6,0-0.9,0.1l0,0l-0.3,0.2l0,0L9.5,108l-0.4,0.2
			c-0.7,0.3-1.4,0.1-1.9-0.5l-0.6-1.1c-0.3-0.7-0.1-1.4,0.4-1.9l0.4-0.2l0.6-0.4l0.2-0.2l0,0l0,0c0.2-0.1,0.3-0.4,0.4-0.6
			c0,0,0,0,0-0.1c0,0,0,0,0-0.1s0-0.2,0-0.4l0,0v-0.1l0,0l0,0l0,0c0-0.1,0-0.1,0-0.2l0,0c0-0.1-0.1-0.2-0.2-0.3l0,0l0,0
			c0,0,0,0,0-0.1l0,0c-0.1-0.2-0.3-0.3-0.5-0.4c0,0-0.1,0-0.1-0.1l-0.3-0.1l-0.7-0.2l-0.4-0.1c-0.7-0.3-1.1-1-1-1.7l0.3-1.2
			c0.3-0.7,0.9-1.1,1.7-1l0.4,0.1l0.7,0.2l0.3,0.1l0,0l0,0c0.7,0.1,1.3-0.3,1.5-1c0-0.2,0-0.4,0-0.5s0-0.2-0.1-0.3L10,95.5l-0.4-0.6
			l-0.2-0.4c-0.3-0.7-0.1-1.4,0.5-1.9l1.1-0.7C11.8,91.7,12.6,91.9,13,92.5z M13.8,97.8c-2.1,1.3-2.8,4-1.5,6.1s4,2.8,6.1,1.5
			s2.8-4,1.5-6.1C18.7,97.2,15.9,96.5,13.8,97.8z"/>
	</g>
	<path display="inline" fill="#6BA9DC" d="M45.5,100.6c-1.2-3.8-3.1-8.5-6.1-13.5c-2.8-4.8-5.8-8.6-8.4-11.5h26.8
		c0.9,0,1.5,1,1.1,1.8L45.5,100.6z"/>
	<path display="inline" fill="#9AC7EC" d="M52.1,89.2c-0.5-2-1.5-4.6-3.1-7.4c-1.6-2.7-3.3-4.7-4.7-6.1h13.9c0.8,0,1.3,0.8,0.9,1.5
		L52.1,89.2z"/>
	<circle display="inline" fill="#F7A813" cx="63.9" cy="17.3" r="9.2"/>
	<polygon display="inline" fill="none" stroke="#72B72F" stroke-width="3" stroke-miterlimit="10" points="111,110.2 119.1,105.4 
		118.9,96 110.7,91.4 102.6,96.3 102.8,105.7 	"/>
	<path display="inline" fill="#73B72B" d="M117.3,75.6H68.6c-0.8,0-1.3,0.8-0.9,1.5l24.4,42.2c0.4,0.7,1.3,0.7,1.7,0l6.6-11.4
		L98,106l-0.1-12.3l10.8-6.9l3,1.6v0.1l6.6-11.4C118.6,76.5,118.1,75.6,117.3,75.6z"/>
	<path display="inline" fill="#A7CC6C" d="M81.3,100.6c1.5-4.2,3.7-9,6.8-14.2c2.6-4.3,5.2-7.9,7.7-10.8H69c-0.9,0-1.5,1-1.1,1.8
		L81.3,100.6z"/>
	<path display="inline" fill="#DFEBCC" d="M74.7,89.2c0.7-2.2,1.8-5,3.6-8c1.4-2.3,2.9-4.1,4.2-5.6h-14c-0.8,0-1.3,0.8-0.9,1.5
		L74.7,89.2z"/>
	<path display="inline" fill="#828282" d="M50.5,66"/>
	<path display="inline" fill="#D1D0D1" d="M57.2,62.8"/>
	
		<text transform="matrix(1 0 0 1 125.7131 101.5876)" display="inline" fill="#828282" font-family="'Rajdhani-Bold'" font-size="88px">KIP</text>
</g>
<g id="Ebene_2_1_">
	<path fill="#F7A813" d="M61.9,66.2L37.5,23.9c-0.4-0.7,0.2-1.6,1.1-1.5l23.7,5c0.4,0.1,0.8,0.1,1.1,0l23.7-5
		c0.8-0.2,1.5,0.7,1.1,1.5L63.6,66.2C63.2,66.9,62.3,66.9,61.9,66.2z"/>
	<path fill="#F9B564" d="M61.7,65.9L48.3,42.7c4.3,0.4,9.1,0.7,14.3,0.7c5.3,0,10.2-0.3,14.6-0.7c-4.5,7.7-8.9,15.5-13.4,23.2
		C63.4,66.7,62.2,66.7,61.7,65.9z"/>
	<path fill="#FACD9B" d="M61.9,66.2l-7-12.1c2.1,0.4,4.8,0.8,7.9,0.8c3,0,5.7-0.3,7.8-0.8l-7,12.1C63.2,66.9,62.3,66.9,61.9,66.2z"
		/>
	<path fill="#828282" d="M57.6,69.7H8.8c-0.8,0-1.3-0.8-0.9-1.5L32.3,26c0.4-0.7,1.3-0.7,1.7,0l10.8,18.7l6.6,11.5l7,12.1
		C58.8,68.9,58.3,69.7,57.6,69.7z"/>
	<path fill="#A3A2A2" d="M57.5,69.7H30.4c2.7-3.5,5.6-7.7,8.4-12.6c2.5-4.4,4.4-8.6,6-12.4c2.2,3.8,4.5,7.5,6.7,11.4
		c1.2,2,2.3,4,3.5,6.1c1.2,2,2.3,4,3.5,6C58.8,68.9,58.3,69.7,57.5,69.7z"/>
	<path fill="#D1D0D1" d="M57.6,69.7h-14c1.4-1.6,3.1-3.7,4.7-6.4c1.5-2.7,2.6-5.2,3.2-7.2l7,12.1C58.9,68.8,58.3,69.7,57.6,69.7z"/>
	<path fill="#828282" d="M91.5,26L67.1,68.2c-0.4,0.7,0.1,1.5,0.9,1.5h48.8c0.8,0,1.3-0.8,0.9-1.5L93.2,26
		C92.8,25.3,91.8,25.3,91.5,26z"/>
	<path fill="#A3A2A2" d="M80.6,44.7L67.1,68.2c-0.4,0.7,0.1,1.5,0.9,1.5h27.2c-2.7-3.2-5.6-7.3-8.4-12.2
		C84,52.8,82.1,48.5,80.6,44.7z"/>
	<path fill="#D1D0D1" d="M74,56.1l-7,12.1c-0.4,0.7,0.1,1.5,0.9,1.5h13.9c-1.4-1.5-3.2-3.6-4.8-6.4C75.5,60.6,74.6,58.1,74,56.1z"/>
	<path fill="#828282" d="M63.6,77.2L88,119.4c0.4,0.7-0.1,1.5-0.9,1.5H38.4c-0.8,0-1.3-0.8-0.9-1.5l24.4-42.2
		C62.3,76.5,63.2,76.5,63.6,77.2z"/>
	<path fill="#A3A2A2" d="M63.8,77.5l13.4,23.2c-3.8-0.9-8.8-1.7-14.7-1.7c-5.7,0-10.5,0.8-14.2,1.7c4.9-8.5,9.1-15.4,13.4-23.2
		C62.4,76.2,63.4,76.7,63.8,77.5z"/>
	<path fill="#D1D0D1" d="M63.6,77.2l7,12.1C68.8,88.7,66.2,88,63,88c-3.5,0-6.3,0.7-8.1,1.3c2.3-4,4.6-8,7-12.1
		C62.2,76.5,63.2,76.5,63.6,77.2z"/>
	<g>
		<path fill="#4D8CCA" d="M57.5,73.7H8.8c-0.9,0-1.3,1-0.7,1.7c0,0,4.3,7.5,7.1,12.4v-0.2l-0.1-0.5c0-0.8,0.6-1.5,1.4-1.7l1.4-0.2
			c0.8,0,1.5,0.5,1.7,1.3l0.1,0.5l0.1,1.1l0,0c0.1,0.6,0.6,1,1.1,1.1c0.2,0,0.4,0.1,0.6,0c0.3,0,0.7-0.2,0.9-0.4l0.2-0.3l0.5-0.6
			l0.3-0.4c0.6-0.6,1.5-0.7,2.2-0.2l1.1,0.9c0.6,0.6,0.7,1.5,0.3,2.2l-0.3,0.4l-0.5,0.6L26,91.6c0,0,0,0.1-0.1,0.1l0,0
			c0,0,0,0.1-0.1,0.1v0.1l0,0V92c0,0.2,0,0.4,0,0.6c0.1,0.3,0.3,0.7,0.5,0.9c0.3,0.2,0.6,0.3,0.9,0.3l0.4-0.1l0.8-0.1l0.5-0.1
			c0.8,0,1.5,0.6,1.7,1.4l0.2,1.4c0,0.8-0.5,1.5-1.3,1.7L29,98.3l-1.1,0.1c0,0,0,0-0.1,0c0,0,0,0-0.1,0c0,0,0,0-0.1,0c0,0,0,0-0.1,0
			h-0.1l0,0c0,0,0,0-0.1,0l0,0l-0.1,0.1l0,0l-0.1,0.1l0,0c-0.3,0.3-0.5,0.8-0.4,1.3c0,0.4,0.2,0.7,0.4,0.9l0.3,0.2l0.6,0.5l0.4,0.3
			c0.6,0.6,0.7,1.5,0.2,2.2l-0.9,1.1c-0.6,0.6-1.5,0.7-2.2,0.3l-0.2-0.2l6.8,11.7c0.3,0.8,1.4,1,1.8,0.2L58.2,75
			C58.8,74.5,58.3,73.7,57.5,73.7z"/>
	</g>
	<g id="gear_1_">
		<path id="gear_2_" fill="#4D8CCA" d="M12.4,90.5l0.2,0.4l0.5,0.9l0,0l0,0c0.1,0.2,0.3,0.3,0.5,0.4l0,0c0.4,0.2,0.9,0.2,1.3-0.1
			c0.1-0.1,0.2-0.2,0.3-0.3c0.1-0.1,0.2-0.3,0.2-0.4l0.1-0.3l0.2-0.7l0.1-0.4c0.3-0.7,1-1.1,1.7-1l1.2,0.3c0.7,0.3,1.1,0.9,1,1.6
			l-0.1,0.4l-0.3,1l0,0l0,0c-0.1,0.5,0.2,1,0.6,1.3c0.1,0.1,0.3,0.2,0.5,0.2c0.3,0.1,0.6,0,0.9-0.1l0.3-0.2l0.6-0.4l0.4-0.2
			c0.7-0.3,1.4-0.1,1.9,0.5l0.6,1.1c0.3,0.7,0.1,1.4-0.4,1.9l-0.4,0.2L23.7,97l-0.3,0.2l0,0l0,0l0,0c0,0-0.1,0-0.1,0.1l0,0l-0.1,0.1
			l0,0l-0.1,0.1l0,0c0,0,0,0.1-0.1,0.1l0,0c-0.1,0.2-0.2,0.3-0.2,0.5c-0.1,0.3,0,0.6,0.2,0.9s0.4,0.5,0.7,0.6l0.3,0.1l0.7,0.2
			l0.4,0.1c0.7,0.3,1.1,1,1,1.7l-0.3,1.2c-0.3,0.7-0.9,1.1-1.7,1l-0.4-0.1l-1-0.3l0,0l0,0l0,0c0,0,0,0-0.1,0c0,0,0,0-0.1,0
			c0,0,0,0-0.1,0c0,0,0,0-0.1,0h-0.1l0,0c0,0,0,0-0.1,0l0,0H22l0,0h-0.1l0,0c-0.4,0.2-0.7,0.5-0.8,0.9l0,0l0,0l0,0
			c-0.1,0.3,0,0.6,0.1,0.9l0.2,0.3l0.4,0.6l0.2,0.4c0.3,0.7,0.1,1.4-0.5,1.9l-1.1,0.7c-0.7,0.3-1.4,0.1-1.9-0.4l-0.2-0.4l-0.5-0.9
			l-0.1-0.1l0,0c0,0,0,0-0.1-0.1c-0.4-0.4-1.1-0.5-1.6-0.2l0,0c-0.3,0.2-0.5,0.4-0.6,0.7l0,0l-0.1,0.3l0,0l-0.2,0.7l-0.1,0.4
			c-0.3,0.7-1,1.1-1.7,1l-1.2-0.3c-0.7-0.3-1.1-0.9-1-1.7l0.1-0.4l0.2-1l0,0l0,0v-0.1l0,0c0,0,0,0,0-0.1v-0.1l0,0v-0.1l0,0l0,0l0,0
			v-0.1l0,0v-0.1l0,0v-0.1c-0.2-0.3-0.5-0.6-0.9-0.7c-0.3-0.1-0.6,0-0.9,0.1l0,0l-0.3,0.2l0,0L8.8,106l-0.4,0.2
			c-0.7,0.3-1.4,0.1-1.9-0.5l-0.6-1.1c-0.3-0.7-0.1-1.4,0.4-1.9l0.4-0.2l0.6-0.4l0.2-0.2l0,0l0,0c0.2-0.1,0.3-0.4,0.4-0.6
			c0,0,0,0,0-0.1c0,0,0,0,0-0.1s0-0.2,0-0.4l0,0v-0.1l0,0l0,0l0,0c0-0.1,0-0.1,0-0.2l0,0c0-0.1-0.1-0.2-0.2-0.3l0,0l0,0
			c0,0,0,0,0-0.1l0,0c-0.1-0.2-0.3-0.3-0.5-0.4c0,0-0.1,0-0.1-0.1L7,99.6l-0.7-0.2l-0.4-0.1c-0.7-0.3-1.1-1-1-1.7l0.3-1.2
			c0.3-0.7,0.9-1.1,1.7-1l0.4,0.1L8,95.7l0.3,0.1l0,0l0,0c0.7,0.1,1.3-0.3,1.5-1c0-0.2,0-0.4,0-0.5s0-0.2-0.1-0.3l-0.2-0.3L9.1,93
			l-0.2-0.4c-0.3-0.7-0.1-1.4,0.5-1.9l1.1-0.7C11.1,89.8,11.9,90,12.4,90.5z M13.2,95.8c-2.1,1.3-2.8,4-1.5,6.1s4,2.8,6.1,1.5
			s2.8-4,1.5-6.1C18,95.3,15.3,94.6,13.2,95.8z"/>
	</g>
	<path fill="#6BA9DC" d="M44.7,98.4c-1.2-3.8-3-8.2-6-13.2c-2.8-4.8-5.8-8.6-8.4-11.5h26.8c0.9,0,1.5,1,1.1,1.8L44.7,98.4z"/>
	<path fill="#9AC7EC" d="M51.4,87c-0.5-2-1.4-4.4-3-7.2c-1.6-2.7-3.3-4.7-4.7-6.1h13.9c0.8,0,1.3,0.8,0.9,1.5L51.4,87z"/>
	<circle fill="#F7A813" cx="63.2" cy="15.3" r="9.2"/>
	<polygon fill="none" stroke="#72B72F" stroke-width="3" stroke-miterlimit="10" points="110.4,108.3 118.4,103.4 118.3,94.1 
		110,89.5 102,94.3 102.2,103.7 	"/>
	<path fill="#73B72B" d="M116.7,73.7l-48.8,0.1c-0.8,0-1.2,0.8-0.8,1.5l24.4,42.1c0.4,0.7,1.3,0.7,1.7,0l6.6-11.4l-2.4-1.9
		l-0.1-12.3l10.8-6.9l3,1.6v0.1l6.6-11.4C118,74.5,117.5,73.7,116.7,73.7z"/>
	<path fill="#A7CC6C" d="M80.7,98.8c1.5-4.2,3.7-9.1,6.8-14.3c2.6-4.3,5.2-7.9,7.7-10.8H68.3c-0.9,0-1.5,1-1.1,1.8L80.7,98.8z"/>
	<path fill="#DFEBCC" d="M74,87.3c0.7-2.2,1.9-5,3.6-8c1.4-2.3,2.9-4.1,4.2-5.6h-14c-0.8,0-1.3,0.8-0.9,1.5L74,87.3z"/>
	<path fill="#828282" d="M49.9,64"/>
	<path fill="#D1D0D1" d="M56.5,60.9"/>
	<g>
		<path fill="#828282" d="M140.1,99.7h-7.5c-1.2,0-1.8-0.6-1.8-1.8v-53c0-1.2,0.6-1.8,1.8-1.8h7.5c1.2,0,1.8,0.6,1.8,1.8V70h0.2
			c0.5-1.4,1.4-3.2,2.7-5.5l13.4-19.6c0.8-1.2,1.9-1.8,3.4-1.8h8.6c0.6,0,1,0.2,1.2,0.6c0.1,0.4,0,0.9-0.5,1.5l-16.7,23.1l18.7,29.2
			c0.4,0.7,0.5,1.2,0.2,1.6s-0.8,0.6-1.6,0.6h-6.4c-2.1,0-3.4-0.6-4.1-1.8l-13.5-21.6l-5.5,6.5v15C142,99,141.4,99.7,140.1,99.7z"/>
		<path fill="#828282" d="M191.5,44.9v52.9c0,1.2-0.6,1.8-1.8,1.8h-7.5c-1.2,0-1.8-0.6-1.8-1.8V44.9c0-1.2,0.6-1.8,1.8-1.8h7.5
			C190.9,43.1,191.5,43.7,191.5,44.9z"/>
		<path fill="#828282" d="M212.7,99.7h-7.5c-1.2,0-1.8-0.6-1.8-1.8v-53c0-1.2,0.6-1.8,1.8-1.8h21.5c4.6,0,8.1,1.2,10.6,3.7
			s3.8,6,3.8,10.6v8.4c0,4.6-1.3,8.1-3.8,10.6s-6.1,3.7-10.6,3.7h-11.1c-0.7,0-1.1,0.3-1.1,1v16.6C214.6,99,214,99.7,212.7,99.7z
			 M215.5,70.4h9.3c1.9,0,3.2-0.4,4-1.2c0.8-0.8,1.1-2.1,1.1-3.9v-7.4c0-1.9-0.4-3.2-1.1-4c-0.8-0.8-2.1-1.2-4-1.2h-9.3
			c-0.6,0-1,0.3-1,1v15.8C214.6,70.1,214.9,70.4,215.5,70.4z"/>
	</g>
</g>
</svg>
