<svg id="Ebene_1" data-name="Ebene 1" 
  xmlns="http://www.w3.org/2000/svg" viewBox="0 0 204.38 204.37">
  <defs>
    <style>.cls-1{fill:#ce1a26;}.cls-2{fill:#b31c1e;}.cls-3{fill:#c52830;}.cls-4{fill:#ce1825;}.cls-5{fill:#9e1d1b;}.cls-6{fill:#a71a1b;}.cls-7{fill:#981817;}.cls-8{fill:#e03c4a;}.cls-10,.cls-9{fill:#d0131e;}.cls-11,.cls-12,.cls-9{stroke:#fff;}.cls-11,.cls-16,.cls-9{stroke-miterlimit:10;}.cls-11,.cls-12{fill:none;}.cls-12{stroke-linejoin:round;}.cls-13,.cls-14,.cls-15,.cls-16{fill:#fff;}.cls-13{fill-rule:evenodd;}.cls-14{font-size:21px;font-family:MyriadPro-Bold, Myriad Pro;font-weight:700;}.cls-16{stroke:#1d1d1b;}.cls-17{font-size:20px;}.cls-17,.cls-18{fill:#1d1d1b;font-family:ArialMT, Arial;}.cls-18{font-size:19.24px;}</style>
  </defs>
  <title>140403 Konzept Institut Logo V15_min</title>
  <circle class="cls-1" cx="134.55" cy="147.78" r="84.55" transform="translate(-86.54 170.19) rotate(-67.85)"/>
  <polygon class="cls-2" points="40.65 42.14 46.46 47.84 28.8 72.89 26.02 62.31 33.16 50.91 40.65 42.14"/>
  <polyline class="cls-3" points="26.02 62.31 19.48 79.01 17.13 91.04 16.51 104.84 18.54 119.76 22.46 132.84 30.43 147.76 39.3 159.02 49.8 167.51 28.8 74.51"/>
  <polygon class="cls-4" points="28.8 72.89 60.8 62.31 46.46 47.84 28.8 72.89"/>
  <polygon class="cls-5" points="28.8 72.89 60.8 62.31 116.13 119.76 28.8 72.89"/>
  <polygon class="cls-6" points="116.13 42.14 60.8 62.31 116.13 119.76 116.13 42.14"/>
  <polygon class="cls-7" points="155.38 36.49 147.13 30.84 116.13 42.14 116.13 74.51 138.13 87.8 165.8 47.84 155.38 36.49"/>
  <polygon class="cls-8" points="185.62 101.29 183.95 84.51 179.13 71.17 173.15 57.07 165.8 47.84 138.13 87.8 183.95 118.06 185.62 101.29"/>
  <polygon class="cls-8" points="147.13 30.84 133.36 23.12 119.13 18.84 102.8 17.17 86.46 17.84 74.8 20.84 60.8 26.51 46.46 47.84 60.8 62.31 147.13 30.84"/>
  <polyline class="cls-9" points="57.6 181.74 34.59 155.13 126.65 155.13 126.65 139.01 126.65 138.69 162.24 168.78 126.65 194.7 126.65 181.74 57.2 181.74"/>
  <polygon class="cls-9" points="50.29 110 57.2 99.42 50.29 88.85 29.56 88.85 22.66 99.42 29.56 110 50.29 110"/>
  <rect class="cls-10" x="64.47" y="88.85" width="34.54" height="21.15" rx="5.67" ry="5.67"/>
  <rect class="cls-11" x="64.47" y="88.85" width="34.54" height="21.15" rx="5.67" ry="5.67"/>
  <rect class="cls-10" x="148.1" y="88.85" width="34.54" height="21.15" rx="5.67" ry="5.67"/>
  <rect class="cls-11" x="148.1" y="88.85" width="34.54" height="21.15" rx="5.67" ry="5.67"/>
  <polygon class="cls-9" points="133.92 110 140.82 99.42 133.92 88.85 113.19 88.85 106.28 99.42 113.19 110 133.92 110"/>
  <polygon class="cls-9" points="133.41 143.76 140.31 133.19 133.41 122.61 112.68 122.61 105.78 133.19 112.68 143.76 133.41 143.76"/>
  <rect class="cls-10" x="101.18" y="119.64" width="31.29" height="21.15"/>
  <rect class="cls-11" x="101.18" y="119.64" width="31.29" height="21.15"/>
  <polygon class="cls-9" points="97.3 79.46 104.21 68.89 97.3 58.31 76.58 58.31 69.67 68.89 76.58 79.46 97.3 79.46"/>
  <rect class="cls-10" x="65.07" y="55.34" width="31.29" height="21.15"/>
  <rect class="cls-11" x="65.07" y="55.34" width="31.29" height="21.15"/>
  <line class="cls-12" x1="57.19" y1="99.42" x2="63.13" y2="99.42"/>
  <polygon class="cls-13" points="61.88 96.33 64.38 99.42 61.88 102.52 61.88 96.33"/>
  <polygon class="cls-13" points="103.96 96.33 106.46 99.42 103.96 102.52 103.96 96.33"/>
  <polygon class="cls-13" points="145.6 96.33 148.1 99.42 145.6 102.52 145.6 96.33"/>
  <line class="cls-12" x1="99.01" y1="99.42" x2="104.94" y2="99.42"/>
  <line class="cls-12" x1="140.82" y1="99.42" x2="146.76" y2="99.42"/>
  <polygon class="cls-13" points="78.64 80.51 81.74 76.83 84.83 80.51 78.64 80.51"/>
  <line class="cls-12" x1="81.74" y1="88.27" x2="81.74" y2="79.33"/>
  <polygon class="cls-13" points="126.65 115.76 123.55 119.45 120.46 115.76 126.65 115.76"/>
  <line class="cls-12" x1="123.55" y1="110" x2="123.55" y2="117.61"/>
  <text class="cls-14" transform="translate(36.85 106.52)">I</text>
  <text class="cls-14" transform="translate(76.64 106.52)">P</text>
  <text class="cls-14" transform="translate(120.05 106.52)">I</text>
  <text class="cls-14" transform="translate(157.24 106.52)">M</text>
  <polygon class="cls-10" points="45.88 75.01 59.01 58.31 45.88 40.36 23.3 75.01 45.88 75.01"/>
  <path class="cls-15" d="M79.37,122H56.78a.48.48,0,0,1-.43-.26.49.49,0,0,1,0-.51L79,86.58a.5.5,0,0,1,.4-.22.48.48,0,0,1,.42.2l13.13,18a.48.48,0,0,1,0,.6l-13.13,16.7A.51.51,0,0,1,79.37,122Zm-21.66-1H79.12l12.75-16.21L79.39,87.74Z" transform="translate(-33.49 -46.49)"/>
  <polygon class="cls-9" points="182.69 70.51 157.89 35.63 133.32 35.63 126.65 42.27 126.65 63.26 133.32 70.51 182.69 70.51"/>
  <path class="cls-16" d="M135.68,47A101.69,101.69,0,1,0,237.37,148.68,101.69,101.69,0,0,0,135.68,47Zm0,179.85a78.16,78.16,0,1,1,78.16-78.16A78.16,78.16,0,0,1,135.68,226.84Z" transform="translate(-33.49 -46.49)"/>
  <text class="cls-17" transform="translate(31.07 37.8) rotate(128.2)">P</text>
  <text class="cls-17" transform="translate(23.02 48.31) rotate(122.3)">r</text>
  <text class="cls-17" transform="translate(19.48 53.7) rotate(117.1)">o</text>
  <text class="cls-17" transform="translate(14.65 63.39) rotate(112.6)">j</text>
  <text class="cls-17" transform="translate(12.94 67.15) rotate(108.1)">e</text>
  <text class="cls-17" transform="translate(9.52 77.68) rotate(101.77)">k</text>
  <text class="cls-17" transform="matrix(-0.13, 0.99, -0.99, -0.13, 7.62, 87.17)">t</text>
  <text class="cls-17" transform="matrix(-0.02, 1, -1, -0.02, 6.64, 92.62)">m</text>
  <text class="cls-17" transform="translate(6.61 109.61) rotate(82.3)">a</text>
  <text class="cls-17" transform="translate(8.11 120.64) rotate(75.62)">n</text>
  <text class="cls-17" transform="translate(10.88 131.44) rotate(68.9)">a</text>
  <text class="cls-17" transform="matrix(0.47, 0.88, -0.88, 0.47, 14.89, 141.83)">g</text>
  <text class="cls-17" transform="matrix(0.57, 0.82, -0.82, 0.57, 20.09, 151.7)">e</text>
  <text class="cls-17" transform="matrix(0.68, 0.73, -0.73, 0.68, 26.41, 161.22)">m</text>
  <text class="cls-17" transform="translate(38.12 173.49) rotate(38.65)">e</text>
  <text class="cls-17" transform="matrix(0.85, 0.53, -0.53, 0.85, 46.81, 180.44)">n</text>
  <text class="cls-17" transform="matrix(0.89, 0.46, -0.46, 0.89, 56.06, 186.1)">t</text>
  <text class="cls-17" transform="translate(60.51 188.4) rotate(24.18)"></text>
  <text class="cls-17" transform="translate(65.31 190.7) rotate(19.29)">u</text>
  <text class="cls-17" transform="translate(75.82 194.38) rotate(12.58)">n</text>
  <text class="cls-17" transform="matrix(0.99, 0.1, -0.1, 0.99, 86.69, 196.8)">d</text>
  <text class="cls-17" transform="matrix(1, 0.02, -0.02, 1, 97.48, 197.81)"></text>
  <text class="cls-17" transform="translate(102.5 197.93) rotate(-1.81)">I</text>
  <text class="cls-17" transform="translate(107.77 197.89) rotate(-6.59)">n</text>
  <text class="cls-17" transform="translate(118.54 196.54) rotate(-11.43)">f</text>
  <text class="cls-17" transform="matrix(0.96, -0.28, 0.28, 0.96, 123.76, 195.61)">o</text>
  <text class="cls-17" transform="translate(134.22 192.46) rotate(-21.54)">r</text>
  <text class="cls-17" transform="translate(140.62 190.25) rotate(-28.6)">m</text>
  <text class="cls-17" transform="matrix(0.8, -0.6, 0.6, 0.8, 155.39, 181.95)">a</text>
  <text class="cls-17" transform="matrix(0.74, -0.67, 0.67, 0.74, 163.99, 175.31)">t</text>
  <text class="cls-17" transform="translate(167.67 172.02) rotate(-44.49)">i</text>
  <text class="cls-17" transform="translate(170.71 169.22) rotate(-48.93)">o</text>
  <text class="cls-17" transform="matrix(0.57, -0.82, 0.82, 0.57, 178.02, 160.85)">n</text>
  <text class="cls-17" transform="translate(184.28 151.67) rotate(-61.86)">s</text>
  <text class="cls-17" transform="translate(189.31 142.73) rotate(-70.01)">m</text>
  <text class="cls-17" transform="translate(194.89 126.71) rotate(-78.57)">o</text>
  <text class="cls-17" transform="translate(197.1 115.79) rotate(-85.23)">d</text>
  <text class="cls-17" transform="matrix(-0.03, -1, 1, -0.03, 198.02, 104.74)">e</text>
  <text class="cls-17" transform="translate(197.57 93.93) rotate(-96.21)">l</text>
  <text class="cls-17" transform="translate(197.17 90.18) rotate(-98.46)">l</text>
  <text class="cls-17" transform="translate(196.63 86.44) rotate(-100.73)">i</text>
  <text class="cls-17" transform="matrix(-0.26, -0.96, 0.96, -0.26, 196, 82.35)">e</text>
  <text class="cls-17" transform="translate(193.05 71.85) rotate(-110.46)">r</text>
  <text class="cls-17" transform="translate(190.88 65.74) rotate(-115.7)">u</text>
  <text class="cls-17" transform="matrix(-0.54, -0.84, 0.84, -0.54, 186.05, 55.7)">n</text>
  <text class="cls-17" transform="matrix(-0.63, -0.78, 0.78, -0.63, 180.09, 46.3)">g</text>
  <text class="cls-18" transform="translate(63.13 28.81) rotate(-26.23)">I</text>
  <text class="cls-18" transform="translate(67.59 26.46) rotate(-20.88)">n</text>
  <text class="cls-18" transform="matrix(0.97, -0.24, 0.24, 0.97, 77.22, 22.8)">s</text>
  <text class="cls-18" transform="matrix(0.99, -0.16, 0.16, 0.99, 86.29, 20.6)">t</text>
  <text class="cls-18" transform="translate(91.38 19.79) rotate(-5.93)">i</text>
  <text class="cls-18" transform="translate(95.45 19.35) rotate(-2.77)">t</text>
  <text class="cls-18" transform="translate(100.46 18.97) rotate(2.45)">u</text>
  <text class="cls-18" transform="translate(110.84 19.52) rotate(7.74)">t</text>
  <text class="cls-18" transform="matrix(0.98, 0.2, -0.2, 0.98, 115.93, 20.21)"></text>
  <text class="cls-18" transform="matrix(0.97, 0.26, -0.26, 0.97, 120.96, 21.21)">f</text>
  <text class="cls-18" transform="translate(125.88 22.37) rotate(20.22)">ü</text>
  <text class="cls-18" transform="matrix(0.9, 0.44, -0.44, 0.9, 135.58, 26.04)">r</text>
</svg>