<svg xmlns="http://www.w3.org/2000/svg" data-name="Слой 1" viewBox="0 0 128 160" x="0px" y="0px"><title>distance learning, education, graduation hat,tutorial,   Computer,  monitor_1</title><path d="M32.69,89.62a1,1,0,0,0,.27,0c2.37-.65,4.74-1.19,7-1.58a1,1,0,0,0-.34-2c-2.36.41-4.78,1-7.22,1.62a1,1,0,0,0,.26,2Z"/><path d="M13.63,98.7a1,1,0,0,0,.13.34,2.28,2.28,0,0,0,0,.45,1,1,0,0,0,1,.82l.18,0,31.85-6a1,1,0,1,0-.37-2L16.86,97.89c3.54-2,14.71-4.38,23.29-6.23l2.15-.46a1,1,0,1,0-.42-2l-2.15.46c-8.56,1.84-15,3.27-19.3,4.67l.86-.44a1,1,0,1,0-.89-1.79,22,22,0,0,0-5.3,3.43L2,23.22c.08-1.47,9.21-5.84,26.35-8.94s27.22-2.21,27.81-.87l3.29,18.2a1,1,0,0,0,2-.36L58.13,13.06c.09-1.47,9.22-5.84,26.35-8.94s27.22-2.21,27.81-.87l13.09,72.31a24.5,24.5,0,0,0-7.49-1.48,85.56,85.56,0,0,0-20.49,1.41c-3.91.71-5.77,1.13-6.64,1.36a1,1,0,1,0,.51,1.93c.84-.22,2.65-.63,6.49-1.32a83.51,83.51,0,0,1,20-1.38,35.14,35.14,0,0,1,3.58.43c-3.17.13-7.43.69-12.74,1.39-3.16.42-6.75.89-10.45,1.31l-1.22.14c-3,.33-3.75.42-6.17.75a1,1,0,0,0,.28,2c2.4-.33,3.18-.42,6.12-.75l1.22-.14c3.72-.42,7.31-.89,10.49-1.31,5.26-.7,12-1.59,15.22-1.38L89.46,84.54a1,1,0,0,0,.17,2l.17,0L127.18,80a1,1,0,0,0,.81-1.16,2.32,2.32,0,0,0-.15-.47,1,1,0,0,0,0-.31h0L114.25,2.89c-1.07-5.93-28.95-1-30.13-.74A121.7,121.7,0,0,0,64.37,7.26c-4.56,1.69-6.66,3.07-7.58,4.18C51.06,8.2,29,12.12,28,12.31a121.75,121.75,0,0,0-19.75,5.1C.42,20.33-.19,22.32,0,23.57Z"/><path d="M52.74,21.19a1,1,0,0,0,.11-2c-5.67-.31-14.07.44-23.06,2.07-8.81,1.59-16.85,3.79-22.05,6a1,1,0,1,0,.79,1.84c5.07-2.18,13-4.32,21.62-5.89S47.3,20.89,52.74,21.19Z"/><path d="M9.38,36.11A1,1,0,0,0,9.77,36c5.07-2.18,13-4.33,21.62-5.89A124.52,124.52,0,0,1,50.31,28a1,1,0,0,0,0-2A126.59,126.59,0,0,0,31,28.17C22.23,29.76,14.19,32,9,34.19a1,1,0,0,0,.39,1.92Z"/><path d="M37.71,76.93c-1.49.28-3.8.82-4.65,1a1,1,0,1,0,.48,1.94c.83-.21,3.08-.73,4.53-1a1,1,0,0,0-.37-2Z"/><path d="M20.29,81.63c-.44.14-1.9.65-2.55.93a1,1,0,1,0,.78,1.84c.58-.25,2-.74,2.37-.86a1,1,0,0,0-.6-1.91Z"/><path d="M30.28,73.38a1,1,0,0,0,.24,0c2.91-.72,4.33-1,7.55-1.6a1,1,0,1,0-.36-2c-3.28.59-4.71.9-7.68,1.63a1,1,0,0,0,.24,2Z"/><path d="M21.72,74.78a1,1,0,0,0-1.26-.64,39.38,39.38,0,0,0-4,1.51,1,1,0,1,0,.79,1.84A37.3,37.3,0,0,1,21.08,76,1,1,0,0,0,21.72,74.78Z"/><path d="M22.2,59A71.29,71.29,0,0,0,14,61.83a1,1,0,1,0,.79,1.84,69.27,69.27,0,0,1,8-2.76A1,1,0,1,0,22.2,59Z"/><path d="M41.36,42.79a1,1,0,1,0-.23-2c-2.33.27-4.23.59-7.59,1.19-8.74,1.56-16.77,3.76-22.05,6a1,1,0,1,0,.79,1.84c5.07-2.18,13.15-4.38,21.62-5.89C37.22,43.36,39.08,43.05,41.36,42.79Z"/><path d="M55.24,35a1,1,0,0,0,.11-2c-5.66-.31-14.07.45-23.06,2.07-8.81,1.59-16.85,3.79-22.05,6A1,1,0,1,0,11,42.94c5.07-2.18,13-4.32,21.62-5.89S49.8,34.71,55.24,35Z"/><path d="M23.28,52.47a1,1,0,0,0-1.23-.7,70.14,70.14,0,0,0-9.32,3.15,1,1,0,1,0,.79,1.84,68.18,68.18,0,0,1,9.06-3.06A1,1,0,0,0,23.28,52.47Z"/><path d="M30.41,66.17l1-.22A1,1,0,1,0,31,64l-1,.22a1,1,0,0,0,.22,2Z"/><path d="M24.11,66.72A1,1,0,0,0,22.87,66a67.79,67.79,0,0,0-7.64,2.7A1,1,0,1,0,16,70.58,65.68,65.68,0,0,1,23.44,68,1,1,0,0,0,24.11,66.72Z"/><path d="M108.56,11.12a1,1,0,0,0,.11-2c-5.66-.31-14.07.44-23.06,2.07-8.81,1.59-16.85,3.79-22.05,6a1,1,0,1,0,.79,1.84c5.07-2.18,13-4.32,21.62-5.89S103.13,10.82,108.56,11.12Z"/><path d="M65.2,26A1,1,0,0,0,65.6,26a79.49,79.49,0,0,1,11-3.57,1,1,0,0,0-.5-1.94,81.52,81.52,0,0,0-11.25,3.67A1,1,0,0,0,65.2,26Z"/><path d="M93.87,66.79,92,67.14a1,1,0,0,0,.23,2l.23,0,1.78-.33L96,68.44a179.77,179.77,0,0,1,18.24-1.94,1,1,0,0,0,0-2h0a182.69,182.69,0,0,0-18.55,2Z"/><path d="M108.5,59.69h.08a68.74,68.74,0,0,1,8.74-.2,1,1,0,0,0,.11-2,69.68,69.68,0,0,0-9,.21,1,1,0,0,0,.08,2Z"/><path d="M95.72,47.1h.16a90.87,90.87,0,0,1,18.93-1.42,1,1,0,0,0,.11-2,92.85,92.85,0,0,0-19.36,1.45,1,1,0,0,0,.16,2Z"/><path d="M77.27,36.65a1,1,0,0,0,.26,0c3.78-1,7.88-1.95,12.19-2.73,8.72-1.58,17.16-2.34,22.6-2a1,1,0,0,0,.11-2c-5.66-.31-14.07.44-23.06,2.07C85,32.71,80.83,33.64,77,34.69a1,1,0,0,0,.26,2Z"/><path d="M68.27,32.08a1,1,0,0,0,.37-.07c1.42-.56,4.17-1.38,8.42-2.51a1,1,0,1,0-.51-1.93c-4.38,1.16-7.12,2-8.64,2.58a1,1,0,0,0,.37,1.93Z"/><path d="M86.53,41.65l.21,0c1.38-.29,2.79-.56,4.23-.83,8.72-1.58,17.16-2.34,22.6-2a1,1,0,0,0,.11-2c-5.66-.31-14.07.44-23.06,2.07q-2.19.4-4.29.83a1,1,0,0,0,.2,2Z"/><path d="M106.06,52.93h.09c2.56-.24,4.93-.38,7-.41a1,1,0,0,0,1-1,1,1,0,0,0-1-1c-2.16,0-4.58.17-7.19.42a1,1,0,0,0,.09,2Z"/><path d="M88.21,79.93V67l18.42-10a1,1,0,0,0,0-1.76L64.8,32.69a1,1,0,0,0-1,0L22,55.31a1,1,0,0,0,0,1.76L25.53,59V74.68a4.35,4.35,0,0,0-1.3,8l-1.39,7.69a1,1,0,0,0,1,1.18h5.4a1,1,0,0,0,1-1.18l-1.39-7.69a4.35,4.35,0,0,0-1.29-8V60.05l12.9,7v12.9c0,8.36,10.72,15.17,23.89,15.17S88.21,88.29,88.21,79.93ZM28,89.5H25l1.13-6.24c.13,0,.25,0,.38,0s.25,0,.38,0Zm.87-10.58a2.37,2.37,0,1,1-2.37-2.37A2.38,2.38,0,0,1,28.9,78.93ZM64.32,34.7l39.74,21.49L64.32,77.67,30.39,59.33l34-2.14a1,1,0,0,0,.94-1.06,1,1,0,0,0-1.06-.94L27.07,57.53l-2.48-1.34Zm0,58.4c-12.07,0-21.89-5.91-21.89-13.17V68.11L63.85,79.69a1,1,0,0,0,1,0L86.21,68.11V79.93C86.21,87.19,76.39,93.1,64.32,93.1Z"/><path d="M127.92,96.44l-2.61-6.1a1,1,0,0,0-1.31-.53l-3.7,1.58-.56-1.3a1,1,0,0,0-1.31-.53L108,94.06h-.13L92.61,96l-2.07-4.84a1,1,0,1,0-1.84.79l1.85,4.32L77.23,97.88a1,1,0,0,0-.4.14l-5.71,3.48a1,1,0,0,0,.24,1.81l6.41,1.85a1,1,0,0,0,.28,0h.13l15.36-2L94.72,106l-1,.43a1,1,0,1,0,.79,1.84l1-.43,1.21,2.82L84.65,120.3a1,1,0,0,0-.26.32l-3.08,5.92A1,1,0,0,0,82.45,128l6.46-1.73a1,1,0,0,0,.37-.19l10.4-8.5,1.85,4.32a1,1,0,1,0,1.84-.79l-2.08-4.85,11.82-9.65a.94.94,0,0,0,.08-.1h0L123.73,102a1,1,0,0,0,.53-1.31l-.56-1.31,3.7-1.59A1,1,0,0,0,127.92,96.44Zm-49.79,6.74-4-1.16,3.59-2.18,27.38-3.42a6.63,6.63,0,0,0-1.16,3.41ZM97.35,107l1-.41a1,1,0,0,0-.79-1.84l-1,.41-1-2.25,8.51-1.11a6.59,6.59,0,0,0,.31.94l.11.26a6.6,6.6,0,0,0,.5.94l-6.7,5.37Zm-9.17,17.34-4.05,1.09,1.94-3.71,20.29-16.28a6.63,6.63,0,0,0,3.18,1.46Zm24.22-19.72a4.6,4.6,0,0,1-6-2.42l-.11-.26a4.6,4.6,0,0,1,2.42-6l9.61-4.11,3.73,8.71Zm10.5-7.13-1.82-4.26,2.78-1.19,1.82,4.26Z"/><path d="M19.68,110.71,5.86,113.28l-.05,0-1.18.22A5.65,5.65,0,0,0,.1,120.11a5.73,5.73,0,0,0,2.32,3.65,5.51,5.51,0,0,0,3.21,1,5.59,5.59,0,0,0,1-.09l1.09-.2h0l13.92-2.58A4,4,0,0,0,20.19,114L5,116.8a1,1,0,0,0,.37,2l15.15-2.81a2,2,0,1,1,.74,4l-8.15,1.51h0l-6.86,1.27a3.51,3.51,0,0,1-2.7-.6,3.74,3.74,0,0,1-1.51-2.38A3.66,3.66,0,0,1,5,115.49l6.86-1.27.05,0L20,112.68A5.34,5.34,0,1,1,22,123.17L6.69,126a1,1,0,0,0,.18,2l.18,0,15.31-2.84a7.34,7.34,0,1,0-2.68-14.43Z"/><path d="M52.09,110,40.5,102l-.05,0-1-.68A5.68,5.68,0,0,0,33,110.65l.92.63h0l11.67,8a4,4,0,0,0,2.27.71,4.09,4.09,0,0,0,.74-.07,4,4,0,0,0,1.55-7.28l-12.7-8.73a1,1,0,0,0-1.13,1.65L49,114.3a2,2,0,1,1-2.3,3.35L39.87,113h0l-5.75-4a3.68,3.68,0,0,1,4.21-6l5.75,4,.05,0L51,111.63a5.34,5.34,0,0,1-6,8.8l-12.83-8.81A1,1,0,1,0,31,113.26l12.83,8.81A7.34,7.34,0,0,0,52.09,110Z"/><text x="0" y="143" fill="#000000" font-size="5px" font-weight="bold" font-family="'Helvetica Neue', Helvetica, Arial-Unicode, Arial, Sans-serif">Created by LAFS</text><text x="0" y="148" fill="#000000" font-size="5px" font-weight="bold" font-family="'Helvetica Neue', Helvetica, Arial-Unicode, Arial, Sans-serif">from the Noun Project</text></svg>